<svg xmlns="http://www.w3.org/2000/svg" width="1280" height="720" viewBox="0 0 1280 720" role="img" aria-labelledby="title desc">
<title id="title">Amethyst Company Brain overview</title><desc id="desc">A synthetic product mock showing sources, governed claims, context packets and attention items.</desc>
<defs><linearGradient id="bg" x1="0" y1="0" x2="1" y2="1"><stop stop-color="#0a0910"/><stop offset="1" stop-color="#111018"/></linearGradient></defs>
<rect width="1280" height="720" rx="26" fill="url(#bg)"/><rect x="1" y="1" width="1278" height="718" rx="25" fill="none" stroke="#fff" stroke-opacity=".08"/>
<g font-family="Inter, ui-sans-serif, system-ui, sans-serif">
<rect x="28" y="28" width="1224" height="64" rx="16" fill="#15131b" stroke="#fff" stroke-opacity=".07"/><path d="M58 48l18 11-7 22H47l-7-22z" fill="#ede9fe"/><path d="M58 48v33M40 59h36M47 81l11-22 11 22" fill="none" stroke="#8b5cf6" stroke-width="1.5"/><text x="92" y="66" fill="#fafafa" font-size="20" font-weight="700">Company Brain</text><text x="92" y="84" fill="#71717a" font-size="12">Governed organizational intelligence</text>
<rect x="1035" y="45" width="190" height="30" rx="15" fill="#22c55e" fill-opacity=".1" stroke="#22c55e" stroke-opacity=".25"/><circle cx="1054" cy="60" r="4" fill="#22c55e"/><text x="1066" y="65" fill="#bbf7d0" font-size="12" font-weight="600">Internal production healthy</text>
<rect x="28" y="112" width="230" height="580" rx="18" fill="#121117" stroke="#fff" stroke-opacity=".07"/><text x="52" y="148" fill="#71717a" font-size="11" font-weight="700" letter-spacing="1.5">WORKSPACE</text>
<g fill="#a1a1aa" font-size="14"><text x="52" y="188">Overview</text><text x="52" y="228">Sources</text><text x="52" y="268">Documents</text><text x="52" y="308">Claims</text><text x="52" y="348">Entities &amp; metrics</text><text x="52" y="388">Policies</text><text x="52" y="428">Context packets</text><text x="52" y="468">Approvals</text><text x="52" y="508">Observability</text><text x="52" y="548">Lifecycle</text></g>
<rect x="42" y="164" width="202" height="42" rx="10" fill="#8b5cf6" fill-opacity=".13"/><rect x="42" y="164" width="3" height="42" rx="2" fill="#8b5cf6"/><text x="52" y="190" fill="#ede9fe" font-size="14" font-weight="650">Overview</text>
<text x="290" y="145" fill="#fafafa" font-size="28" font-weight="700">Company Brain overview</text><text x="290" y="174" fill="#8b8b98" font-size="14">Evidence health, governed truth, and context readiness</text>
<g transform="translate(290 202)">
<g><rect width="220" height="112" rx="16" fill="#15131b" stroke="#fff" stroke-opacity=".08"/><text x="20" y="30" fill="#8b8b98" font-size="12">Connected sources</text><text x="20" y="70" fill="#fafafa" font-size="34" font-weight="700">12</text><text x="78" y="70" fill="#22c55e" font-size="12">10 healthy</text><text x="20" y="94" fill="#fbbf24" font-size="12">2 need attention</text></g>
<g transform="translate(238)"><rect width="220" height="112" rx="16" fill="#15131b" stroke="#fff" stroke-opacity=".08"/><text x="20" y="30" fill="#8b8b98" font-size="12">Approved claims</text><text x="20" y="70" fill="#fafafa" font-size="34" font-weight="700">148</text><text x="20" y="94" fill="#a78bfa" font-size="12">17 candidates in review</text></g>
<g transform="translate(476)"><rect width="220" height="112" rx="16" fill="#15131b" stroke="#fff" stroke-opacity=".08"/><text x="20" y="30" fill="#8b8b98" font-size="12">Context packets</text><text x="20" y="70" fill="#fafafa" font-size="34" font-weight="700">36</text><text x="20" y="94" fill="#60a5fa" font-size="12">8 compiled today</text></g>
<g transform="translate(714)"><rect width="220" height="112" rx="16" fill="#15131b" stroke="#fff" stroke-opacity=".08"/><text x="20" y="30" fill="#8b8b98" font-size="12">Attention items</text><text x="20" y="70" fill="#fafafa" font-size="34" font-weight="700">7</text><text x="20" y="94" fill="#f87171" font-size="12">2 contradictions</text></g>
</g>
<g transform="translate(290 338)"><rect width="610" height="328" rx="18" fill="#15131b" stroke="#fff" stroke-opacity=".08"/><text x="22" y="34" fill="#fafafa" font-size="17" font-weight="650">Knowledge readiness</text><text x="22" y="56" fill="#71717a" font-size="12">Latest governed state by domain</text>
<g transform="translate(22 82)"><text y="15" fill="#d4d4d8" font-size="13">Positioning</text><rect x="120" width="410" height="16" rx="8" fill="#24212c"/><rect x="120" width="374" height="16" rx="8" fill="#8b5cf6"/><text x="542" y="14" fill="#c4b5fd" font-size="12">91%</text>
<text y="65" fill="#d4d4d8" font-size="13">Products</text><rect x="120" y="50" width="410" height="16" rx="8" fill="#24212c"/><rect x="120" y="50" width="344" height="16" rx="8" fill="#8b5cf6"/><text x="542" y="64" fill="#c4b5fd" font-size="12">84%</text>
<text y="115" fill="#d4d4d8" font-size="13">Audiences</text><rect x="120" y="100" width="410" height="16" rx="8" fill="#24212c"/><rect x="120" y="100" width="303" height="16" rx="8" fill="#fbbf24"/><text x="542" y="114" fill="#fde68a" font-size="12">74%</text>
<text y="165" fill="#d4d4d8" font-size="13">Policies</text><rect x="120" y="150" width="410" height="16" rx="8" fill="#24212c"/><rect x="120" y="150" width="397" height="16" rx="8" fill="#22c55e"/><text x="542" y="164" fill="#bbf7d0" font-size="12">97%</text>
<text y="215" fill="#d4d4d8" font-size="13">Proof library</text><rect x="120" y="200" width="410" height="16" rx="8" fill="#24212c"/><rect x="120" y="200" width="270" height="16" rx="8" fill="#60a5fa"/><text x="542" y="214" fill="#bfdbfe" font-size="12">66%</text></g></g>
<g transform="translate(920 338)"><rect width="332" height="328" rx="18" fill="#15131b" stroke="#fff" stroke-opacity=".08"/><text x="22" y="34" fill="#fafafa" font-size="17" font-weight="650">Needs review</text><text x="22" y="56" fill="#71717a" font-size="12">Ranked by policy and staleness</text>
<g transform="translate(18 82)"><rect width="296" height="64" rx="12" fill="#211522" stroke="#f87171" stroke-opacity=".2"/><circle cx="24" cy="22" r="5" fill="#f87171"/><text x="40" y="26" fill="#fafafa" font-size="13" font-weight="600">Pricing contradiction</text><text x="18" y="48" fill="#8b8b98" font-size="11">2 approved claims disagree</text>
<rect y="76" width="296" height="64" rx="12" fill="#201c13" stroke="#fbbf24" stroke-opacity=".2"/><circle cx="24" cy="98" r="5" fill="#fbbf24"/><text x="40" y="102" fill="#fafafa" font-size="13" font-weight="600">Audience source stale</text><text x="18" y="124" fill="#8b8b98" font-size="11">Last synchronized 19 days ago</text>
<rect y="152" width="296" height="64" rx="12" fill="#171727" stroke="#8b5cf6" stroke-opacity=".25"/><circle cx="24" cy="174" r="5" fill="#a78bfa"/><text x="40" y="178" fill="#fafafa" font-size="13" font-weight="600">Learning candidate</text><text x="18" y="200" fill="#8b8b98" font-size="11">Campaign result ready for approval</text></g></g>
</g></svg>